<svg height="64" viewBox="0 0 128 128" width="64" xmlns="http://www.w3.org/2000/svg" xmlns:xlink="http://www.w3.org/1999/xlink"><linearGradient id="a" gradientUnits="userSpaceOnUse" x1="0" x2="128" y1="128" y2="0"><stop offset="0" stop-color="#333"/><stop offset="1" stop-color="#5d5d5d"/></linearGradient><path d="m64 4.125c-3.938339 0-7.771467.414125-11.46875 1.21875 2.050178 2.389054 3.959465 4.848371 5.78125 7.34375.613833.840538 1.192303 1.679793 1.78125 2.53125.588947.851458 1.18543 1.700681 1.75 2.5625.564571.861818 1.115546 1.75338 1.65625 2.625.313727.506188.662936 1.021899.96875 1.53125.217886.362676.411082.72952.625 1.09375.351461.598791.721636 1.178396 1.0625 1.78125.159842.282536.311211.560353.46875.84375.382722.688876.755712 1.399953 1.125 2.09375.108527.203747.205118.420844.3125.625.40716.774771.827876 1.532055 1.21875 2.3125.06278.125217.093888.249643.15625.375.794449 1.596974 1.583798 3.194382 2.3125 4.8125.09742.216331.184974.439572.28125.65625.06935.156211.149991.312361.21875.46875.722632 1.642313 1.372431 3.308664 2.03125 4.96875.01602.04037.04651.084617.0625.125.08882.224552.19356.431407.28125.65625.275357.705553.548179 1.416747.8125 2.125.116851.313326.229026.623681.34375.9375.227566.622063.436935 1.25112.65625 1.875.330054.938899.65696 1.869948.96875 2.8125s.612213 1.898103.90625 2.84375c.177565.57184.360023 1.145946.53125 1.71875.11184.373644.203318.750988.3125 1.125.193944.665141.408073 1.302598.59375 1.96875.07896.282941.172517.5919.25.875.206712.756077.366084 1.524244.5625 2.28125.05036.193913.106554.399788.15625.59375.482914 1.884621.952753 3.738085 1.375 5.625.0041.01856-.0041.04394 0 .0625.801209 3.585291 1.490707 7.179314 2.09375 10.75.03795.224731.087776.46289.125.6875.226467 1.368186.424606 2.731061.625 4.09375.01568.106614.01572.237175.03125.34375.284931 1.956275.577246 3.872071.8125 5.8125.248181 2.047062.458162 4.101278.65625 6.125.01624.165919.04657.334259.0625.5.17802 1.853442.328174 3.702563.46875 5.53125l-7.125 4.28125 1.96875 2.84375 10.6875 15.3125 16.90625-35.8125-1.625.9375-5.84375 3.375c-.42752-4.096599-.97933-8.198224-1.625-12.28125-.25732-1.627142-.520441-3.25487-.8125-4.875-.2088-1.160033-.460909-2.282237-.6875-3.4375-.0651-.331975-.120921-.668474-.1875-1-.0734-.364744-.14361-.729584-.21875-1.09375-.257309-1.248844-.534229-2.508733-.8125-3.75-.0375-.167359-.05579-.301542-.09375-.46875-.0268-.118211-.06675-.256866-.09375-.375-.377719-1.653516-.77238-3.300706-1.1875-4.9375-.351839-1.385421-.715031-2.75363-1.09375-4.125-.0215-.07794-.00965-.172102-.03125-.25-.45713-1.647706-.94144-3.281974-1.4375-4.90625-.0714-.23365-.14659-.454373-.21875-.6875-.0394-.127523-.08534-.247635-.125-.375-.0213-.06825-.0412-.150541-.0625-.21875-.509551-1.63043-1.04461-3.241271-1.59375-4.84375-.0333-.09689-.06035-.184466-.09375-.28125-.54405-1.579024-1.1361-3.139089-1.71875-4.6875-.61486-1.633991-1.248321-3.247508-1.90625-4.84375-.661859-1.605782-1.325715-3.186232-2.03125-4.75-.318664-.705794-.64118-1.397067-.96875-2.09375-.39527-.841774-.779211-1.672103-1.1875-2.5-.01361-.02755-.01764-.03496-.03125-.0625-1.482314-3.000824-3.064778-5.919536-4.71875-8.71875-2.587004-4.378291-5.365852-8.488942-8.375-12.28125-2.16961-.266705-4.383308-.40625-6.625-.40625zm9.34375.78125c2.800323 3.7229777 5.977498 8.412482 9.25 14.1875l.46875-.3125v-1.34375l2.375-1.5625 3.65625-.875c1.61183.944751 3.13624 2.010081 4.625 3.125h-.9375l2.5625 2.625.75-.78125c.26571.225193.52042.456855.78125.6875.4512-1.655948.82597-3.163395 1.09375-4.46875-6.964781-5.688967-15.394786-9.6629475-24.625-11.28125zm-23.3125 1.03125c-22.899864 6.148117-39.75 27.032282-39.75 51.875 0 15.123913 6.258389 28.792561 16.3125 38.5625 2.809529-.889423 5.511938-1.847265 8.09375-2.90625l-.34375-.78125.21875-4.71875-1.59375-2.21875-3.5-3.15625-3.59375-6.5 1-3.34375-.40625-.90625 1.15625-1.78125 1.625-4.25v-.34375l-1.21875-.5625-1.5625.21875-2.78125-2.03125-1.78125-2.21875-4.125-1.125-3.375-2c.01983-17.211825 8.78539-32.338553 22.09375-41.21875l-.125 1.78125-2.1875 2.03125-4.9375 2.875.5625 2.0625 3.78125 1.5625.59375 2.6875 1.375-2.9375 2.1875-.90625-.21875-1.3125 2.1875-3.78125 2.78125 1.5625-.40625 1.78125 2.375-.90625 1 2.03125-.40625 1.34375 1.40625.4375 1.1875 1.125-.40625 1.34375-3.375 1.125h-2.375l-3.34375 1.5625h5.3125l-1.78125 2.65625-3.53125.6875-1.59375 2.25-2.75 1.125-1.4375 3.34375-3.75 3.125-.375 4.5-2.1875-2.71875-2.96875-.65625-.375 1.34375h-2.375l-3 2.25-.375 2.6875.21875 2.46875 1.96875 1.125 1.375-.6875 1.375-1.78125h1.375c-.19953 1.568235-.364333 3.118993-.5625 4.6875l2.375-.25v2.46875l.78125 2.28125c.959838.590163 2.297023.626357 3.375.9375v-.5l3.5625-3.15625 3.375 2.46875 3.9375-.4375 1.5625 4.25 2.96875.65625 1.59375 3.1875c3.224395 1.658612 6.43889 3.295278 9.6875 4.90625l-.40625 3.34375-2.34375 3.375.125 1.59375c9.554988-6.368958 15.849306-12.77986 18.28125-16.15625-1.380674-1.567056-2.774577-3.155779-4.15625-4.71875l-1.96875-4.6875 1.78125-2.6875-.96875-1.09375 2.15625-5.1875c1.310545-1.630236 2.692324-3.179805 4.0625-4.75-2.630315-6.257606-6.676903-15.62447-13.21875-25.78125-.320671.102975-.639462.210693-.96875.3125l-1.96875 3.125-1.59375.90625-2.375-4.6875 1.8125-1.8125v-1.8125l-4.5625-3.09375 1.375-1.375 1.9375-.53125c-.926806-1.1914762-1.904692-2.3748438-2.90625-3.5625zm-7.90625 7.40625.15625.9375 3.75.46875 1 2 2.1875.90625-1.96875 1.78125c-1.319696-.894502-2.650143-1.791639-3.96875-2.6875l-2-.65625c-.869183.580908-1.709093 1.177746-2.5625 1.78125l-.96875 2.25h-1.96875l.96875-2.46875 1.59375-1.34375-.09375-.90625c.352126-.213844.704691-.419748 1.0625-.625l.21875.40625.34375-.75c.72761-.405135 1.500394-.724757 2.25-1.09375zm-8.3125 1.625h.0625c-.04407.03106-.049787.093817-.09375.125zm65.34375 2.28125c-.997078 5.083711-3.065509 12.399606-7.25 21.75 2.248671 6.291058 4.854201 14.736164 6.59375 21.4375 6.57886-12.236747 9.891-23.703374 11.4375-30.46875-2.913-4.79546-6.56382-9.061663-10.78125-12.71875zm-55.6875 1.0625 2 .90625v1.53125h-1.59375l-1.96875-1.3125zm44.9375 0-2.15625 2.03125-.59375 1.125.59375 1.5625-.625 1.65625c.31473.61869.623436 1.235055.9375 1.875l1.84375-1.5.21875-1.125 2.59375-1.78125c-.93045.11569-1.90329.190055-2.8125.4375v-2l1-2.28125zm-41.78125 11.875 1.8125 1.34375-1.1875 1.8125zm64.3125 1.53125c-.40857 1.724611-.93705 3.725356-1.59375 5.96875 1.66214 3.747268 2.8674 7.736561 3.5625 11.90625-.37208-.345623-.74388-.716517-1.125-1.0625l-2.28125.375-2.0625-2.375v2.90625l1.78125 1.375 1.15625 1.34375 1.625-1.78125c.3988.746959.76016 1.471791 1.15625 2.21875v2.25l-1.78125 2-3.28125 2.25-2.375 2.375c1.15249-.08299 2.32193-.226606 3.5-.375v1.5625l-2.40625 5.84375-2.15625 2.46875-1.75 3.78125v6.28125l.53125 2.4375-.53125.65625.5625 4.8125 6.71875-3.625c4.78897-8.042086 7.53125-17.464292 7.53125-27.5 0-9.481819-2.47127-18.361462-6.78125-26.09375zm-8.0625 23.34375c-.36157.787134-.73677 1.575328-1.125 2.375.52476 1.375888 1.03994 2.76431 1.6875 4.125.71753 0 1.45847-.01506 2.15625-.0625l-1.53125-1.75.78125-2.03125-1.5625-1.78125zm-24.125 7.75c-14.613348 21.199303-38.284155 31.790037-49.625 35.875 4.174809 3.56961 8.86476 6.52229 14 8.6875 1.154445-.39798 2.292531-.77769 3.53125-1.21875 15.416896-5.48951 27.235707-14.130756 36.25-23.78125-.976497-6.041151-2.379868-12.865569-4.15625-19.5625zm4.46875 22.96875c-5.902331 6.201556-16.893027 15.60559-35.5 23.28125 5.135815 1.63305 10.608642 2.53125 16.28125 2.53125 5.412761 0 10.636373-.82242 15.5625-2.3125l-3.0625-4.28125 7.96875-4.53125c-.146397-4.903283-.626789-9.784217-1.25-14.6875z" fill="url(#a)"/></svg>